<mxfile host="app.diagrams.net" modified="2024-06-30T05:02:42.056Z" agent="Mozilla/5.0 (Macintosh; Intel Mac OS X 10_15_7) AppleWebKit/605.1.15 (KHTML, like Gecko) Version/17.5 Safari/605.1.15" etag="d3Cq8v361Lj9ncT56D2e" version="24.6.4" type="github">
  <diagram name="Page-1" id="A-NgMyMOeqddoYSjgyla">
    <mxGraphModel dx="819" dy="438" grid="1" gridSize="10" guides="1" tooltips="1" connect="1" arrows="1" fold="1" page="1" pageScale="1" pageWidth="850" pageHeight="1100" math="1" shadow="0">
      <root>
        <mxCell id="0" />
        <mxCell id="1" parent="0" />
        <mxCell id="Cje5kSmNVjuhhmP4PUfj-4" style="edgeStyle=none;rounded=0;orthogonalLoop=1;jettySize=auto;html=1;exitX=1;exitY=0.5;exitDx=0;exitDy=0;entryX=0;entryY=0.5;entryDx=0;entryDy=0;" edge="1" parent="1" source="Cje5kSmNVjuhhmP4PUfj-6" target="Cje5kSmNVjuhhmP4PUfj-8">
          <mxGeometry relative="1" as="geometry" />
        </mxCell>
        <mxCell id="Cje5kSmNVjuhhmP4PUfj-5" style="edgeStyle=none;rounded=0;orthogonalLoop=1;jettySize=auto;html=1;exitX=1;exitY=0.5;exitDx=0;exitDy=0;entryX=0;entryY=0.5;entryDx=0;entryDy=0;" edge="1" parent="1" source="Cje5kSmNVjuhhmP4PUfj-6" target="Cje5kSmNVjuhhmP4PUfj-11">
          <mxGeometry relative="1" as="geometry" />
        </mxCell>
        <mxCell id="Cje5kSmNVjuhhmP4PUfj-6" value="$$w_1$$" style="text;html=1;align=center;verticalAlign=middle;whiteSpace=wrap;rounded=0;" vertex="1" parent="1">
          <mxGeometry x="420" y="220" width="20" height="30" as="geometry" />
        </mxCell>
        <mxCell id="Cje5kSmNVjuhhmP4PUfj-7" style="edgeStyle=none;rounded=0;orthogonalLoop=1;jettySize=auto;html=1;exitX=1;exitY=0.5;exitDx=0;exitDy=0;entryX=0;entryY=0.5;entryDx=0;entryDy=0;" edge="1" parent="1" source="Cje5kSmNVjuhhmP4PUfj-8" target="Cje5kSmNVjuhhmP4PUfj-9">
          <mxGeometry relative="1" as="geometry" />
        </mxCell>
        <mxCell id="Cje5kSmNVjuhhmP4PUfj-8" value="$$w_3$$" style="text;html=1;align=center;verticalAlign=middle;whiteSpace=wrap;rounded=0;" vertex="1" parent="1">
          <mxGeometry x="470" y="220" width="20" height="30" as="geometry" />
        </mxCell>
        <mxCell id="Cje5kSmNVjuhhmP4PUfj-9" value="$$w_6$$" style="text;html=1;align=center;verticalAlign=middle;whiteSpace=wrap;rounded=0;" vertex="1" parent="1">
          <mxGeometry x="520" y="220" width="20" height="30" as="geometry" />
        </mxCell>
        <mxCell id="Cje5kSmNVjuhhmP4PUfj-10" style="edgeStyle=none;rounded=0;orthogonalLoop=1;jettySize=auto;html=1;exitX=1;exitY=0.5;exitDx=0;exitDy=0;entryX=0;entryY=0.5;entryDx=0;entryDy=0;" edge="1" parent="1" source="Cje5kSmNVjuhhmP4PUfj-11" target="Cje5kSmNVjuhhmP4PUfj-14">
          <mxGeometry relative="1" as="geometry" />
        </mxCell>
        <mxCell id="Cje5kSmNVjuhhmP4PUfj-11" value="$$w_4$$" style="text;html=1;align=center;verticalAlign=middle;whiteSpace=wrap;rounded=0;" vertex="1" parent="1">
          <mxGeometry x="470" y="260" width="20" height="30" as="geometry" />
        </mxCell>
        <mxCell id="Cje5kSmNVjuhhmP4PUfj-12" style="edgeStyle=none;rounded=0;orthogonalLoop=1;jettySize=auto;html=1;exitX=1;exitY=0.5;exitDx=0;exitDy=0;entryX=0;entryY=0.5;entryDx=0;entryDy=0;" edge="1" parent="1" source="Cje5kSmNVjuhhmP4PUfj-13" target="Cje5kSmNVjuhhmP4PUfj-14">
          <mxGeometry relative="1" as="geometry" />
        </mxCell>
        <mxCell id="Cje5kSmNVjuhhmP4PUfj-13" value="$$w_5$$" style="text;html=1;align=center;verticalAlign=middle;whiteSpace=wrap;rounded=0;" vertex="1" parent="1">
          <mxGeometry x="470" y="300" width="20" height="30" as="geometry" />
        </mxCell>
        <mxCell id="Cje5kSmNVjuhhmP4PUfj-14" value="$$w_7$$" style="text;html=1;align=center;verticalAlign=middle;whiteSpace=wrap;rounded=0;" vertex="1" parent="1">
          <mxGeometry x="520" y="260" width="20" height="30" as="geometry" />
        </mxCell>
        <mxCell id="Cje5kSmNVjuhhmP4PUfj-15" style="edgeStyle=none;rounded=0;orthogonalLoop=1;jettySize=auto;html=1;exitX=1;exitY=0.5;exitDx=0;exitDy=0;entryX=0;entryY=0.5;entryDx=0;entryDy=0;" edge="1" parent="1" source="Cje5kSmNVjuhhmP4PUfj-16" target="Cje5kSmNVjuhhmP4PUfj-13">
          <mxGeometry relative="1" as="geometry" />
        </mxCell>
        <mxCell id="Cje5kSmNVjuhhmP4PUfj-16" value="$$w_2$$" style="text;html=1;align=center;verticalAlign=middle;whiteSpace=wrap;rounded=0;" vertex="1" parent="1">
          <mxGeometry x="420" y="260" width="20" height="30" as="geometry" />
        </mxCell>
        <mxCell id="Cje5kSmNVjuhhmP4PUfj-18" style="edgeStyle=none;rounded=0;orthogonalLoop=1;jettySize=auto;html=1;exitX=1;exitY=0.5;exitDx=0;exitDy=0;entryX=0;entryY=0.5;entryDx=0;entryDy=0;" edge="1" parent="1" source="Cje5kSmNVjuhhmP4PUfj-20" target="Cje5kSmNVjuhhmP4PUfj-22">
          <mxGeometry relative="1" as="geometry" />
        </mxCell>
        <mxCell id="Cje5kSmNVjuhhmP4PUfj-19" style="edgeStyle=none;rounded=0;orthogonalLoop=1;jettySize=auto;html=1;exitX=1;exitY=0.5;exitDx=0;exitDy=0;entryX=0;entryY=0.5;entryDx=0;entryDy=0;" edge="1" parent="1" source="Cje5kSmNVjuhhmP4PUfj-20" target="Cje5kSmNVjuhhmP4PUfj-25">
          <mxGeometry relative="1" as="geometry" />
        </mxCell>
        <mxCell id="Cje5kSmNVjuhhmP4PUfj-20" value="$$w_1$$" style="text;html=1;align=center;verticalAlign=middle;whiteSpace=wrap;rounded=0;" vertex="1" parent="1">
          <mxGeometry x="140" y="220" width="20" height="30" as="geometry" />
        </mxCell>
        <mxCell id="Cje5kSmNVjuhhmP4PUfj-21" style="edgeStyle=none;rounded=0;orthogonalLoop=1;jettySize=auto;html=1;exitX=1;exitY=0.5;exitDx=0;exitDy=0;entryX=0;entryY=0.5;entryDx=0;entryDy=0;" edge="1" parent="1" source="Cje5kSmNVjuhhmP4PUfj-22" target="Cje5kSmNVjuhhmP4PUfj-23">
          <mxGeometry relative="1" as="geometry" />
        </mxCell>
        <mxCell id="Cje5kSmNVjuhhmP4PUfj-22" value="$$w_3$$" style="text;html=1;align=center;verticalAlign=middle;whiteSpace=wrap;rounded=0;" vertex="1" parent="1">
          <mxGeometry x="190" y="220" width="20" height="30" as="geometry" />
        </mxCell>
        <mxCell id="Cje5kSmNVjuhhmP4PUfj-32" style="edgeStyle=orthogonalEdgeStyle;rounded=0;orthogonalLoop=1;jettySize=auto;html=1;exitX=1;exitY=0.5;exitDx=0;exitDy=0;entryX=0;entryY=0.5;entryDx=0;entryDy=0;" edge="1" parent="1" source="Cje5kSmNVjuhhmP4PUfj-23" target="Cje5kSmNVjuhhmP4PUfj-31">
          <mxGeometry relative="1" as="geometry" />
        </mxCell>
        <mxCell id="Cje5kSmNVjuhhmP4PUfj-23" value="$$w_6$$" style="text;html=1;align=center;verticalAlign=middle;whiteSpace=wrap;rounded=0;" vertex="1" parent="1">
          <mxGeometry x="240" y="220" width="20" height="30" as="geometry" />
        </mxCell>
        <mxCell id="Cje5kSmNVjuhhmP4PUfj-24" style="edgeStyle=none;rounded=0;orthogonalLoop=1;jettySize=auto;html=1;exitX=1;exitY=0.5;exitDx=0;exitDy=0;entryX=0;entryY=0.5;entryDx=0;entryDy=0;" edge="1" parent="1" source="Cje5kSmNVjuhhmP4PUfj-25" target="Cje5kSmNVjuhhmP4PUfj-28">
          <mxGeometry relative="1" as="geometry" />
        </mxCell>
        <mxCell id="Cje5kSmNVjuhhmP4PUfj-25" value="$$w_4$$" style="text;html=1;align=center;verticalAlign=middle;whiteSpace=wrap;rounded=0;" vertex="1" parent="1">
          <mxGeometry x="190" y="260" width="20" height="30" as="geometry" />
        </mxCell>
        <mxCell id="Cje5kSmNVjuhhmP4PUfj-26" style="edgeStyle=none;rounded=0;orthogonalLoop=1;jettySize=auto;html=1;exitX=1;exitY=0.5;exitDx=0;exitDy=0;entryX=0;entryY=0.5;entryDx=0;entryDy=0;" edge="1" parent="1" source="Cje5kSmNVjuhhmP4PUfj-27" target="Cje5kSmNVjuhhmP4PUfj-28">
          <mxGeometry relative="1" as="geometry" />
        </mxCell>
        <mxCell id="Cje5kSmNVjuhhmP4PUfj-27" value="$$w_5$$" style="text;html=1;align=center;verticalAlign=middle;whiteSpace=wrap;rounded=0;" vertex="1" parent="1">
          <mxGeometry x="190" y="300" width="20" height="30" as="geometry" />
        </mxCell>
        <mxCell id="Cje5kSmNVjuhhmP4PUfj-34" style="edgeStyle=none;rounded=0;orthogonalLoop=1;jettySize=auto;html=1;exitX=1;exitY=0.5;exitDx=0;exitDy=0;entryX=0;entryY=0.5;entryDx=0;entryDy=0;" edge="1" parent="1" source="Cje5kSmNVjuhhmP4PUfj-28" target="Cje5kSmNVjuhhmP4PUfj-31">
          <mxGeometry relative="1" as="geometry" />
        </mxCell>
        <mxCell id="Cje5kSmNVjuhhmP4PUfj-28" value="$$w_7$$" style="text;html=1;align=center;verticalAlign=middle;whiteSpace=wrap;rounded=0;" vertex="1" parent="1">
          <mxGeometry x="240" y="260" width="20" height="30" as="geometry" />
        </mxCell>
        <mxCell id="Cje5kSmNVjuhhmP4PUfj-29" style="edgeStyle=none;rounded=0;orthogonalLoop=1;jettySize=auto;html=1;exitX=1;exitY=0.5;exitDx=0;exitDy=0;entryX=0;entryY=0.5;entryDx=0;entryDy=0;" edge="1" parent="1" source="Cje5kSmNVjuhhmP4PUfj-30" target="Cje5kSmNVjuhhmP4PUfj-27">
          <mxGeometry relative="1" as="geometry" />
        </mxCell>
        <mxCell id="Cje5kSmNVjuhhmP4PUfj-30" value="$$w_2$$" style="text;html=1;align=center;verticalAlign=middle;whiteSpace=wrap;rounded=0;" vertex="1" parent="1">
          <mxGeometry x="140" y="260" width="20" height="30" as="geometry" />
        </mxCell>
        <mxCell id="Cje5kSmNVjuhhmP4PUfj-31" value="$$w_8$$" style="text;html=1;align=center;verticalAlign=middle;whiteSpace=wrap;rounded=0;" vertex="1" parent="1">
          <mxGeometry x="290" y="220" width="20" height="30" as="geometry" />
        </mxCell>
      </root>
    </mxGraphModel>
  </diagram>
</mxfile>
